<mxfile host="app.diagrams.net" modified="2024-02-05T17:23:54.603Z" agent="Mozilla/5.0 (Windows NT 10.0; Win64; x64) AppleWebKit/537.36 (KHTML, like Gecko) Chrome/121.0.0.0 Safari/537.36" version="23.1.1" etag="e5ST2e4y8MYIjf4b2Ci3" type="github">
  <diagram name="PÃ¡gina-1" id="Kr9S15QrcKe04JYpcYTV">
    <mxGraphModel>
      <root>
        <mxCell id="0" />
        <mxCell id="1" parent="0" />
      </root>
    </mxGraphModel>
  </diagram>
</mxfile>
